<svg width="900" height="919" viewBox="0 0 900 919" fill="none" xmlns="http://www.w3.org/2000/svg">
<path d="M56.2348 900C55.4241 900 54.7414 899.744 54.1868 899.232C53.6748 898.677 53.4188 897.995 53.4188 897.184C53.4188 896.373 53.6748 895.691 54.1868 895.136C54.7414 894.581 55.4241 894.304 56.2348 894.304C57.0454 894.304 57.7281 894.581 58.2828 895.136C58.8374 895.691 59.1148 896.373 59.1148 897.184C59.1148 897.995 58.8374 898.677 58.2828 899.232C57.7281 899.744 57.0454 900 56.2348 900ZM98.5678 900.96C95.2398 900.96 92.2744 900.299 89.6718 898.976C87.1118 897.653 85.1064 895.776 83.6558 893.344C82.2478 890.869 81.5438 887.989 81.5438 884.704C81.5438 881.461 82.2691 878.603 83.7198 876.128C85.1704 873.653 87.1758 871.733 89.7358 870.368C92.3384 869.003 95.2824 868.32 98.5678 868.32C101.853 868.32 104.776 869.003 107.336 870.368C109.938 871.733 111.965 873.653 113.416 876.128C114.866 878.603 115.592 881.461 115.592 884.704C115.592 887.989 114.866 890.869 113.416 893.344C112.008 895.776 110.002 897.653 107.4 898.976C104.84 900.299 101.896 900.96 98.5678 900.96ZM98.5678 897.056C102.237 897.056 105.16 895.947 107.336 893.728C109.554 891.467 110.664 888.459 110.664 884.704C110.664 880.907 109.554 877.899 107.336 875.68C105.16 873.419 102.237 872.288 98.5678 872.288C94.8984 872.288 91.9544 873.419 89.7358 875.68C87.5598 877.899 86.4718 880.907 86.4718 884.704C86.4718 888.459 87.5598 891.467 89.7358 893.728C91.9544 895.947 94.8984 897.056 98.5678 897.056ZM139.261 869.28H144.061V873.888C145.555 871.968 147.368 870.56 149.501 869.664C151.677 868.768 153.981 868.32 156.413 868.32C160.467 868.32 163.475 869.387 165.437 871.52C167.443 873.653 168.445 876.512 168.445 880.096V900H163.517V880.544C163.517 877.899 162.877 875.872 161.597 874.464C160.317 873.013 158.269 872.288 155.453 872.288C150.717 872.288 146.963 874.421 144.189 878.688V900H139.261V869.28ZM204.978 900.96C202.503 900.96 200.071 900.747 197.682 900.32C195.292 899.893 193.33 899.317 191.794 898.592V893.856C195.804 895.605 200.114 896.48 204.722 896.48C208.562 896.48 211.378 895.861 213.17 894.624C215.004 893.387 215.922 891.531 215.922 889.056C215.922 887.307 215.538 885.92 214.77 884.896C214.044 883.872 212.978 883.019 211.57 882.336C210.162 881.611 207.73 880.544 204.274 879.136C200.05 877.429 196.978 875.573 195.058 873.568C193.18 871.52 192.242 868.939 192.242 865.824C192.242 863.563 192.839 861.557 194.034 859.808C195.271 858.059 196.999 856.715 199.218 855.776C201.436 854.795 203.996 854.304 206.898 854.304C209.244 854.304 211.356 854.496 213.234 854.88C215.154 855.221 217.031 855.797 218.866 856.608V861.152C215.282 859.573 211.527 858.784 207.602 858.784C204.188 858.784 201.607 859.403 199.858 860.64C198.108 861.877 197.234 863.605 197.234 865.824C197.234 867.317 197.596 868.597 198.322 869.664C199.047 870.731 200.178 871.712 201.714 872.608C203.292 873.504 205.447 874.485 208.178 875.552C211.25 876.747 213.66 877.877 215.41 878.944C217.159 879.968 218.503 881.291 219.442 882.912C220.423 884.491 220.914 886.539 220.914 889.056C220.914 892.853 219.57 895.797 216.882 897.888C214.194 899.936 210.226 900.96 204.978 900.96ZM244.574 855.264H249.694L266.59 892.192L283.486 855.264H288.606V900H283.678V865.44L267.87 900H265.31L249.502 865.44V900H244.574V855.264ZM328.525 855.264H333.197L351.053 900H345.933L341.133 888.032H320.525L315.789 900H310.669L328.525 855.264ZM339.725 883.808L330.829 861.024L321.997 883.808H339.725ZM374.761 855.264H392.041C396.692 855.264 400.212 856.352 402.601 858.528C405.033 860.704 406.249 863.925 406.249 868.192C406.249 871.435 405.289 874.187 403.369 876.448C401.492 878.709 398.868 880.139 395.497 880.736L406.121 900H400.937L390.441 880.992H379.753V900H374.761V855.264ZM391.401 876.768C394.473 876.768 396.884 876.043 398.633 874.592C400.383 873.141 401.257 871.008 401.257 868.192C401.257 865.035 400.383 862.795 398.633 861.472C396.927 860.149 394.516 859.488 391.401 859.488H379.753V876.768H391.401ZM439.475 859.488H425.139V855.264H458.803V859.488H444.467V900H439.475V859.488ZM482.735 900C481.924 900 481.241 899.744 480.687 899.232C480.175 898.677 479.919 897.995 479.919 897.184C479.919 896.373 480.175 895.691 480.687 895.136C481.241 894.581 481.924 894.304 482.735 894.304C483.545 894.304 484.228 894.581 484.783 895.136C485.337 895.691 485.615 896.373 485.615 897.184C485.615 897.995 485.337 898.677 484.783 899.232C484.228 899.744 483.545 900 482.735 900ZM521.228 900.96C518.753 900.96 516.321 900.747 513.932 900.32C511.542 899.893 509.58 899.317 508.044 898.592V893.856C512.054 895.605 516.364 896.48 520.972 896.48C524.812 896.48 527.628 895.861 529.42 894.624C531.254 893.387 532.172 891.531 532.172 889.056C532.172 887.307 531.788 885.92 531.02 884.896C530.294 883.872 529.228 883.019 527.82 882.336C526.412 881.611 523.98 880.544 520.524 879.136C516.3 877.429 513.228 875.573 511.308 873.568C509.43 871.52 508.492 868.939 508.492 865.824C508.492 863.563 509.089 861.557 510.284 859.808C511.521 858.059 513.249 856.715 515.468 855.776C517.686 854.795 520.246 854.304 523.148 854.304C525.494 854.304 527.606 854.496 529.484 854.88C531.404 855.221 533.281 855.797 535.116 856.608V861.152C531.532 859.573 527.777 858.784 523.852 858.784C520.438 858.784 517.857 859.403 516.108 860.64C514.358 861.877 513.484 863.605 513.484 865.824C513.484 867.317 513.846 868.597 514.572 869.664C515.297 870.731 516.428 871.712 517.964 872.608C519.542 873.504 521.697 874.485 524.428 875.552C527.5 876.747 529.91 877.877 531.66 878.944C533.409 879.968 534.753 881.291 535.692 882.912C536.673 884.491 537.164 886.539 537.164 889.056C537.164 892.853 535.82 895.797 533.132 897.888C530.444 899.936 526.476 900.96 521.228 900.96ZM581.407 900.96C576.884 900.96 572.831 900 569.247 898.08C565.705 896.16 562.932 893.451 560.927 889.952C558.921 886.411 557.919 882.315 557.919 877.664C557.919 873.013 558.921 868.939 560.927 865.44C562.932 861.899 565.705 859.168 569.247 857.248C572.831 855.285 576.884 854.304 581.407 854.304C587.593 854.304 592.713 855.925 596.767 859.168V864.032C592.927 860.576 587.935 858.848 581.791 858.848C578.164 858.848 574.921 859.616 572.063 861.152C569.204 862.688 566.964 864.885 565.343 867.744C563.721 870.56 562.911 873.867 562.911 877.664C562.911 881.461 563.721 884.789 565.343 887.648C567.007 890.464 569.268 892.64 572.127 894.176C574.985 895.712 578.207 896.48 581.791 896.48C584.991 896.48 587.849 896.053 590.367 895.2C592.884 894.347 595.209 892.939 597.343 890.976V895.904C593.545 899.275 588.233 900.96 581.407 900.96ZM621.011 855.264H626.003V875.104H651.219V855.264H656.211V900H651.219V879.328H626.003V900H621.011V855.264ZM703.343 900.96C698.948 900.96 694.959 900 691.375 898.08C687.833 896.117 685.039 893.365 682.991 889.824C680.943 886.283 679.919 882.229 679.919 877.664C679.919 873.099 680.943 869.045 682.991 865.504C685.039 861.963 687.833 859.211 691.375 857.248C694.916 855.285 698.905 854.304 703.343 854.304C707.78 854.304 711.769 855.285 715.311 857.248C718.852 859.211 721.647 861.963 723.695 865.504C725.743 869.045 726.767 873.099 726.767 877.664C726.767 882.229 725.743 886.283 723.695 889.824C721.647 893.365 718.831 896.117 715.247 898.08C711.705 900 707.737 900.96 703.343 900.96ZM703.343 896.48C706.756 896.48 709.871 895.712 712.687 894.176C715.503 892.64 717.721 890.464 719.343 887.648C720.964 884.789 721.775 881.461 721.775 877.664C721.775 873.909 720.964 870.624 719.343 867.808C717.764 864.949 715.567 862.752 712.751 861.216C709.977 859.637 706.884 858.848 703.471 858.848C700.015 858.848 696.879 859.616 694.063 861.152C691.247 862.688 689.007 864.885 687.343 867.744C685.721 870.603 684.911 873.909 684.911 877.664C684.911 881.461 685.721 884.789 687.343 887.648C688.964 890.464 691.183 892.64 693.999 894.176C696.815 895.712 699.929 896.48 703.343 896.48ZM772.28 900.96C767.886 900.96 763.896 900 760.312 898.08C756.771 896.117 753.976 893.365 751.928 889.824C749.88 886.283 748.856 882.229 748.856 877.664C748.856 873.099 749.88 869.045 751.928 865.504C753.976 861.963 756.771 859.211 760.312 857.248C763.854 855.285 767.843 854.304 772.28 854.304C776.718 854.304 780.707 855.285 784.248 857.248C787.79 859.211 790.584 861.963 792.632 865.504C794.68 869.045 795.704 873.099 795.704 877.664C795.704 882.229 794.68 886.283 792.632 889.824C790.584 893.365 787.768 896.117 784.184 898.08C780.643 900 776.675 900.96 772.28 900.96ZM772.28 896.48C775.694 896.48 778.808 895.712 781.624 894.176C784.44 892.64 786.659 890.464 788.28 887.648C789.902 884.789 790.712 881.461 790.712 877.664C790.712 873.909 789.902 870.624 788.28 867.808C786.702 864.949 784.504 862.752 781.688 861.216C778.915 859.637 775.822 858.848 772.408 858.848C768.952 858.848 765.816 859.616 763 861.152C760.184 862.688 757.944 864.885 756.28 867.744C754.659 870.603 753.848 873.909 753.848 877.664C753.848 881.461 754.659 884.789 756.28 887.648C757.902 890.464 760.12 892.64 762.936 894.176C765.752 895.712 768.867 896.48 772.28 896.48ZM819.386 855.264H824.378V895.776H848.186V900H819.386V855.264Z" fill="#FFFFFF"/>
<path d="M782.947 247.904C781.474 252.837 779.6 257.653 777.342 262.346C771.648 274.205 763.431 285.075 752.802 294.107C726.987 316.094 692.995 322.146 662.692 313.379L662.485 313.775C642.32 308.239 620.713 308.84 600.744 315.857C589.153 319.923 578.09 326.152 568.195 334.606C541.77 357.051 529.611 389.989 532.38 422.062C532.936 425.963 533.263 429.912 533.347 433.827C533.931 462.002 522.389 490.16 499.289 509.809C464.422 539.508 414.669 540.274 379.198 514.47C373.432 510.259 368.047 505.37 363.155 499.752C362.885 499.457 362.636 499.13 362.364 498.832C359.733 495.707 357.314 492.477 355.137 489.143C353.72 486.995 352.423 484.825 351.197 482.607C329.369 443.007 337.65 392.283 373.392 361.866C383.591 353.164 395.585 346.613 408.444 342.776C420.909 339.052 434.109 337.889 447.025 339.33C453.297 340.032 459.463 341.317 465.491 343.197C474.669 346.075 484.273 347.413 493.892 347.176C516.662 346.617 539.371 338.591 558.082 322.706C585.065 299.7 597.224 265.82 593.617 233.009C591.651 218.296 593.108 203.282 597.839 189.177C603.207 172.983 612.956 158.021 626.904 146.166C652.299 124.569 685.64 118.243 715.559 126.475C723.951 128.755 732.028 132.168 739.644 136.718C748.546 141.991 756.755 148.837 763.832 157.174C764.554 158.021 765.27 158.869 765.967 159.755C786.324 185.419 791.725 218.458 782.947 247.904Z" fill="#F06990"/>
<path d="M682.783 399.186C682.947 399.97 683.166 400.734 683.33 401.515C683.532 402.568 683.674 403.604 683.826 404.673C683.918 405.412 684.067 406.138 684.135 406.887C684.347 408.67 684.454 410.483 684.491 412.256C692.306 489.651 664.489 569.571 602.174 625.402C600.437 626.965 598.666 628.494 596.886 630.007C596.347 630.449 595.83 630.887 595.287 631.335C594.016 632.381 592.778 633.416 591.498 634.44C590.865 634.966 590.222 635.459 589.58 635.955C588.395 636.897 587.204 637.814 586.019 638.723C585.321 639.235 584.651 639.733 583.986 640.241C582.788 641.125 581.586 641.989 580.384 642.848C579.705 643.322 579.04 643.829 578.359 644.28C577.109 645.181 575.871 646.02 574.61 646.865C573.982 647.302 573.32 647.718 572.692 648.16C571.303 649.062 569.938 649.963 568.544 650.842C568.002 651.178 567.487 651.497 566.972 651.821C565.137 652.977 563.287 654.084 561.439 655.187C561.364 655.232 561.267 655.283 561.19 655.329C559.186 656.503 557.154 657.654 555.107 658.772C554.888 658.917 554.662 659.024 554.404 659.145C552.694 660.106 550.934 661.014 549.18 661.929C548.628 662.2 548.07 662.481 547.544 662.75C546.08 663.477 544.626 664.23 543.129 664.933C542.499 665.235 541.863 665.529 541.226 665.826C539.831 666.481 538.439 667.132 537.009 667.767C536.35 668.066 535.693 668.37 535.022 668.648C533.593 669.283 532.184 669.887 530.771 670.457C530.128 670.728 529.463 671.005 528.822 671.273C527.334 671.89 525.808 672.466 524.308 673.059C523.74 673.252 523.172 673.483 522.632 673.697C520.815 674.367 519.004 675.04 517.175 675.66C516.915 675.752 516.657 675.867 516.393 675.936C512.123 677.436 507.845 678.765 503.509 680.002C503.112 680.126 502.712 680.225 502.291 680.356C500.574 680.828 498.85 681.305 497.117 681.732C496.564 681.903 495.98 682.045 495.387 682.187C493.816 682.576 492.239 682.96 490.686 683.311C490.048 683.465 489.405 683.596 488.79 683.748C487.23 684.075 485.696 684.391 484.135 684.721C483.515 684.845 482.896 684.965 482.249 685.097C480.659 685.403 479.037 685.719 477.403 685.98C476.861 686.079 476.325 686.184 475.778 686.258C473.928 686.573 472.08 686.857 470.253 687.133C469.924 687.184 469.623 687.235 469.298 687.286C464.839 687.898 460.354 688.41 455.871 688.802C455.755 688.793 455.675 688.813 455.592 688.807C453.481 688.99 451.402 689.156 449.313 689.279C448.895 689.29 448.444 689.321 448.028 689.335C446.266 689.427 444.483 689.528 442.745 689.584C442.187 689.611 441.651 689.628 441.112 689.619C439.459 689.681 437.773 689.703 436.078 689.721C435.536 689.71 434.978 689.74 434.442 689.726C432.712 689.726 431.018 689.721 429.309 689.686C428.823 689.662 428.319 689.675 427.834 689.651C425.957 689.603 424.103 689.549 422.269 689.458C421.923 689.437 421.588 689.434 421.263 689.399C414.561 689.064 407.857 688.469 401.225 687.575C400.908 687.546 400.59 687.514 400.291 687.474C398.42 687.225 396.572 686.943 394.721 686.661C394.55 686.645 394.367 686.605 394.193 686.591C393.992 686.559 393.81 686.516 393.605 686.481C381.21 684.489 368.981 681.55 356.982 677.709C356.861 677.677 356.77 677.644 356.673 677.613C351.525 675.96 346.373 674.112 341.312 672.135C340.934 671.969 340.55 671.809 340.143 671.655C337.796 670.733 335.49 669.741 333.153 668.759C333.022 668.679 332.899 668.628 332.773 668.574C330.33 667.498 327.913 666.4 325.478 665.243C325.095 665.056 324.677 664.846 324.253 664.638C322.271 663.683 320.302 662.695 318.326 661.682C317.816 661.441 317.326 661.164 316.842 660.912C314.501 659.681 312.187 658.434 309.888 657.133C309.762 657.08 309.657 656.994 309.535 656.938C307.394 655.709 305.305 654.47 303.189 653.207C302.618 652.834 302.017 652.472 301.454 652.131C299.588 650.972 297.745 649.82 295.922 648.594C295.549 648.35 295.15 648.111 294.75 647.841C292.612 646.414 290.499 644.952 288.383 643.463C287.831 643.066 287.281 642.659 286.704 642.265C285.124 641.117 283.539 639.958 281.973 638.757C281.34 638.264 280.68 637.773 280.026 637.284C278.031 635.734 276.071 634.184 274.121 632.57C273.66 632.202 273.225 631.8 272.764 631.43C271.238 630.17 269.733 628.861 268.253 627.56C267.432 626.86 266.636 626.15 265.837 625.439C264.675 624.393 263.51 623.318 262.372 622.248C261.536 621.491 260.725 620.73 259.918 619.96C258.293 618.41 256.681 616.828 255.073 615.211C254.767 614.894 254.445 614.605 254.142 614.283C253.689 613.829 253.286 613.331 252.836 612.877C250.763 610.761 248.754 608.595 246.742 606.368C246.625 606.229 246.477 606.1 246.362 605.955C234.798 593.066 224.84 579.341 216.427 564.974C210.004 553.995 204.485 542.68 199.858 531.089C171.959 461.021 176.963 381.471 213.672 315.435C219.003 305.814 225.016 296.448 231.703 287.487C241.59 274.203 252.994 261.679 265.814 250.19C265.996 250.007 266.184 249.846 266.38 249.713C268.117 248.158 269.887 246.619 271.638 245.115C334.729 191.863 416.869 174.916 492.079 192.662L492.054 192.783C500.189 194.577 507.996 198.059 514.966 203.192C518.248 205.611 521.338 208.42 524.175 211.566C530.137 218.248 534.394 225.913 536.92 233.917C543.939 256.061 537.907 281.264 519.48 297.802C511.764 304.729 502.758 309.284 493.396 311.578C490.223 312.357 487.016 312.891 483.798 313.142C477.919 313.621 472.008 313.259 466.26 312.069C465.987 311.997 465.697 311.979 465.421 311.88C464.756 311.703 463.992 311.581 463.271 311.419C460.782 310.843 458.288 310.351 455.774 309.919C450.998 309.112 446.171 308.57 441.324 308.287C440.587 308.272 439.842 308.229 439.099 308.215C437.586 308.16 436.079 308.105 434.553 308.112C433.644 308.108 432.74 308.104 431.834 308.099C430.429 308.131 429.002 308.199 427.578 308.268C426.733 308.304 425.915 308.304 425.084 308.371C422.86 308.518 420.678 308.716 418.481 309C417.904 309.055 417.357 309.134 416.808 309.213C414.831 309.47 412.873 309.753 410.923 310.118C410.596 310.169 410.266 310.22 409.944 310.271C407.675 310.69 405.444 311.176 403.229 311.719L401.761 312.08C399.849 312.578 397.943 313.103 396.02 313.687C395.655 313.803 395.279 313.896 394.888 314.021C392.686 314.731 390.462 315.477 388.261 316.297C387.901 316.439 387.542 316.587 387.18 316.733C385.265 317.457 383.372 318.261 381.483 319.092C381.1 319.267 380.687 319.428 380.279 319.613C378.118 320.596 375.994 321.626 373.867 322.74C373.615 322.861 373.369 323.006 373.122 323.15C371.243 324.147 369.381 325.196 367.533 326.303C367.109 326.544 366.688 326.789 366.251 327.07C364.208 328.305 362.18 329.621 360.169 330.99C360.027 331.112 359.909 331.198 359.761 331.288C357.929 332.585 356.138 333.931 354.355 335.303C353.878 335.673 353.432 336.036 352.957 336.409C351.066 337.917 349.184 339.483 347.355 341.12C297.891 385.455 290.412 459.2 327.569 512.233C330.545 516.43 333.787 520.52 337.293 524.441C337.526 524.696 337.762 524.975 337.998 525.233C339.224 526.541 340.446 527.85 341.685 529.105C342.219 529.652 342.769 530.167 343.316 530.679C344.289 531.637 345.258 532.583 346.242 533.498C346.896 534.107 347.577 534.673 348.261 535.265C349.165 536.059 350.069 536.863 350.985 537.629C351.699 538.24 352.434 538.794 353.176 539.409C354.051 540.099 354.962 540.809 355.864 541.488C356.628 542.067 357.419 542.639 358.207 543.201C359.1 543.84 359.988 544.465 360.881 545.095L363.308 546.706C364.217 547.305 365.121 547.87 366.051 548.433C366.88 548.935 367.712 549.442 368.57 549.935C369.49 550.474 370.409 550.984 371.327 551.496C372.204 551.959 373.062 552.459 373.904 552.901C374.87 553.373 375.802 553.847 376.768 554.317C377.637 554.751 378.501 555.164 379.369 555.574C380.359 556.041 381.333 556.446 382.322 556.88C383.169 557.245 384.06 557.642 384.913 558.004C385.948 558.425 387.002 558.816 388.064 559.208C388.9 559.511 389.716 559.846 390.558 560.154C392.039 560.665 393.544 561.147 395.072 561.622C396.148 561.976 397.242 562.274 398.338 562.598C399.521 562.933 400.68 563.266 401.881 563.569C402.763 563.805 403.684 563.971 404.59 564.201C405.601 564.431 406.655 564.689 407.725 564.909C408.65 565.099 409.597 565.263 410.541 565.429C411.552 565.636 412.584 565.805 413.617 565.974C414.55 566.116 415.521 566.242 416.46 566.381C417.484 566.526 418.504 566.639 419.523 566.762C420.504 566.856 421.462 566.965 422.417 567.037C423.46 567.124 424.468 567.215 425.498 567.274C426.453 567.354 427.423 567.398 428.397 567.441C429.43 567.496 430.451 567.529 431.47 567.538C432.438 567.556 433.404 567.569 434.364 567.564C435.413 567.561 436.456 567.556 437.497 567.529C438.446 567.497 439.402 567.454 440.35 567.422C441.418 567.357 442.445 567.301 443.496 567.218C444.443 567.151 445.39 567.091 446.304 567.009C447.407 566.904 448.5 566.751 449.579 566.632C450.48 566.52 451.367 566.448 452.266 566.311C453.465 566.126 454.661 565.919 455.878 565.699C456.637 565.573 457.407 565.471 458.166 565.34C460.11 564.975 462.02 564.565 463.95 564.12C464.642 563.954 465.327 563.755 465.994 563.595C467.271 563.251 468.518 562.943 469.762 562.581C470.61 562.342 471.425 562.09 472.264 561.827C473.364 561.473 474.475 561.143 475.542 560.798C476.429 560.492 477.285 560.17 478.14 559.851C479.181 559.481 480.222 559.116 481.248 558.692C482.129 558.359 483.005 558.005 483.871 557.624C484.871 557.209 485.899 556.786 486.894 556.346C487.76 555.965 488.623 555.557 489.508 555.136C490.496 554.67 491.477 554.173 492.435 553.682C493.322 553.27 494.172 552.805 495.025 552.371C495.972 551.857 496.94 551.309 497.908 550.757C498.759 550.296 499.572 549.813 500.416 549.325C501.374 548.754 502.331 548.151 503.256 547.552C504.093 547.037 504.905 546.53 505.702 545.989C506.36 545.549 507.006 545.08 507.686 544.629C508.963 543.722 510.267 542.811 511.533 541.877C512.726 540.96 513.925 540.078 515.105 539.133C515.432 538.858 515.767 538.603 516.097 538.326C517.626 537.075 519.149 535.797 520.627 534.443C553.365 505.123 567.638 462.91 562.815 422.385C559.987 402.78 566.672 382.194 582.5 367.988C583.544 367.056 584.6 366.173 585.7 365.339C585.96 365.133 586.239 364.897 586.526 364.684C587.51 363.964 588.519 363.236 589.541 362.561C589.661 362.476 589.752 362.395 589.879 362.333C590.976 361.615 592.086 360.948 593.202 360.305C593.545 360.108 593.894 359.909 594.254 359.737C595.171 359.226 596.125 358.738 597.061 358.283C597.311 358.163 597.569 358.045 597.821 357.928C598.936 357.4 600.095 356.945 601.232 356.496C601.645 356.338 602.033 356.189 602.428 356.064C603.331 355.727 604.275 355.413 605.192 355.131L606.133 354.811C607.319 354.466 608.521 354.17 609.692 353.884C610.073 353.818 610.421 353.732 610.802 353.668C611.824 353.447 612.845 353.252 613.862 353.116C614.047 353.069 614.233 353.025 614.425 353.005C614.506 352.985 614.568 353.001 614.645 352.982C615.873 352.794 617.086 352.666 618.333 352.557C618.584 352.556 618.834 352.521 619.083 352.514C620.113 352.434 621.114 352.384 622.138 352.39C622.435 352.371 622.747 352.351 623.06 352.36C624.308 352.365 625.554 352.369 626.783 352.437C626.869 352.445 626.987 352.445 627.073 352.449C628.199 352.542 629.32 352.634 630.459 352.779C630.832 352.802 631.186 352.853 631.565 352.906C632.53 353.033 633.477 353.199 634.447 353.355C634.713 353.402 634.984 353.45 635.274 353.492C636.435 353.743 637.602 353.995 638.755 354.307C639.114 354.389 639.452 354.506 639.809 354.586C640.689 354.821 641.544 355.091 642.413 355.389C642.777 355.495 643.139 355.603 643.488 355.747C644.623 356.12 645.752 356.548 646.851 357.013C646.913 357.026 646.972 357.04 647.007 357.062C647.35 357.202 647.707 357.372 648.055 357.54C648.621 357.767 649.166 358.03 649.74 358.285C650.158 358.495 650.577 358.702 650.994 358.911C651.51 359.179 652.032 359.449 652.551 359.718C652.975 359.953 653.433 360.208 653.864 360.469C654.326 360.722 654.811 360.999 655.251 361.287C655.721 361.568 656.182 361.849 656.627 362.165C657.062 362.427 657.496 362.715 657.909 363.012C658.381 363.322 658.858 363.657 659.308 363.997C659.716 364.265 660.1 364.566 660.483 364.868C660.972 365.23 661.422 365.572 661.877 365.939C662.272 366.266 662.629 366.576 663.023 366.903C663.45 367.28 663.91 367.646 664.347 368.05C664.747 368.431 665.131 368.817 665.528 369.172C665.933 369.553 666.303 369.916 666.705 370.297C667.467 371.073 668.217 371.847 668.932 372.665C670.168 374.029 671.307 375.448 672.369 376.884C673.083 377.842 673.718 378.814 674.351 379.788C674.71 380.325 675.086 380.826 675.418 381.365C675.931 382.2 676.403 383.075 676.875 383.949C677.272 384.67 677.705 385.385 678.076 386.115C678.376 386.747 678.647 387.387 678.95 388.048C679.315 388.863 679.75 389.691 680.092 390.513C680.092 390.513 680.092 390.513 680.101 390.539C680.173 390.721 680.211 390.879 680.283 391.058C680.615 391.94 680.886 392.833 681.187 393.695C681.474 394.528 681.79 395.356 682.026 396.203C682.324 397.179 682.542 398.201 682.783 399.186Z" fill="#F06990"/>
<path d="M255.814 537.765C257.203 575.528 227.714 607.273 189.948 608.668C152.182 610.055 120.436 580.565 119.047 542.799C117.655 505.033 147.143 473.287 184.908 471.896C222.675 470.506 254.423 499.996 255.814 537.765Z" fill="#E23979"/>
<path d="M154.795 799.77C149.216 794.224 146.426 786.543 146.426 776.731C146.426 766.341 149.134 758.325 154.555 752.681C159.973 747.039 167.941 744.216 178.46 744.216C185.129 744.216 191.286 745.242 196.93 747.294V758.646C191.479 756.401 185.642 755.279 179.422 755.279C172.431 755.279 167.381 757.027 164.271 760.521C161.159 764.017 159.604 769.42 159.604 776.731C159.604 783.594 161.255 788.708 164.559 792.075C167.861 795.442 172.88 797.125 179.614 797.125C185.898 797.125 191.702 796.036 197.026 793.855V805.303C191.317 807.162 185.16 808.093 178.556 808.093C168.295 808.092 160.374 805.318 154.795 799.77Z" fill="#FFFFFF"/>
<path d="M232.187 801.838C227.281 797.67 224.828 791.674 224.828 783.849V745.177H237.815V782.886C237.815 787.569 239.08 791.097 241.615 793.468C244.148 795.841 247.787 797.028 252.534 797.028C257.279 797.028 260.903 795.841 263.404 793.468C265.905 791.097 267.156 787.569 267.156 782.886V745.177H280.143V783.849C280.143 791.609 277.704 797.59 272.832 801.79C267.957 805.991 261.192 808.091 252.534 808.091C243.875 808.091 237.093 806.008 232.187 801.838Z" fill="#FFFFFF"/>
<path d="M309.865 745.178H335.839C345.33 745.178 352.385 747.631 357.003 752.537C361.62 757.443 363.929 765.413 363.929 776.443C363.929 786.962 361.62 794.706 357.003 799.675C352.385 804.646 345.33 807.131 335.839 807.131H309.865V745.178ZM334.011 797.125C337.922 797.125 341.065 796.548 343.438 795.394C345.81 794.239 347.623 792.156 348.874 789.14C350.124 786.127 350.749 781.894 350.749 776.442C350.749 770.927 350.187 766.695 349.066 763.744C347.944 760.795 346.195 758.758 343.823 757.636C341.45 756.514 338.179 755.952 334.011 755.952H322.852V797.125H334.011V797.125Z" fill="#FFFFFF"/>
<path d="M446.081 745.178H475.133C482.123 745.178 487.413 747.135 491.006 751.046C494.597 754.958 496.393 760.122 496.393 766.534C496.393 770.704 495.511 774.391 493.748 777.597C491.982 780.806 489.467 783.29 486.196 785.053C482.925 786.817 479.108 787.699 474.747 787.699H459.068V807.131H446.08V745.178H446.081ZM472.055 777.405C475.71 777.405 478.5 776.442 480.424 774.519C482.349 772.595 483.31 769.934 483.31 766.534C483.31 762.943 482.412 760.202 480.616 758.309C478.821 756.418 476.127 755.471 472.536 755.471H459.068V777.405H472.055V777.405Z" fill="#FFFFFF"/>
<path d="M522.848 745.178H535.835V797.125H566.33V807.13H522.848V745.178H522.848Z" fill="#FFFFFF"/>
<path d="M596.2 801.838C591.293 797.67 588.84 791.674 588.84 783.849V745.177H601.827V782.886C601.827 787.569 603.093 791.097 605.627 793.468C608.16 795.841 611.798 797.028 616.546 797.028C621.291 797.028 624.915 795.841 627.416 793.468C629.917 791.097 631.168 787.569 631.168 782.886V745.177H644.155V783.849C644.155 791.609 641.716 797.59 636.843 801.79C631.969 805.991 625.203 808.091 616.546 808.091C607.887 808.091 601.105 806.008 596.2 801.838Z" fill="#FFFFFF"/>
<path d="M673.108 804.724V793.276C675.994 794.431 679.072 795.362 682.343 796.066C685.614 796.773 688.788 797.124 691.867 797.124C696.676 797.124 700.058 796.677 702.016 795.777C703.971 794.88 704.949 793.021 704.949 790.198C704.949 788.338 704.5 786.864 703.603 785.773C702.703 784.683 701.23 783.738 699.177 782.935C697.124 782.134 693.918 781.124 689.558 779.905C683.079 778.11 678.526 775.864 675.897 773.171C673.267 770.477 671.953 766.759 671.953 762.012C671.953 756.305 674.037 751.91 678.206 748.833C682.374 745.754 688.435 744.215 696.388 744.215C699.979 744.215 703.394 744.455 706.633 744.936C709.872 745.418 712.516 746.043 714.57 746.812V758.26C709.311 756.273 703.827 755.278 698.12 755.278C693.759 755.278 690.504 755.759 688.356 756.721C686.207 757.683 685.133 759.448 685.133 762.012C685.133 763.616 685.534 764.897 686.336 765.86C687.137 766.822 688.484 767.672 690.376 768.409C692.267 769.147 695.201 770.029 699.178 771.055C706.36 772.978 711.331 775.465 714.089 778.51C716.846 781.556 718.226 785.452 718.226 790.198C718.226 795.777 716.109 800.155 711.876 803.33C707.644 806.504 701.391 808.091 693.117 808.091C684.844 808.091 678.173 806.97 673.108 804.724Z" fill="#FFFFFF"/>
<path d="M758.535 762.012H745.066V751.911H758.535V738.731H768.732V751.911H782.2V762.012H768.732V774.902H758.535V762.012Z" fill="#FFFFFF"/>
<path d="M684.491 412.256C684.453 410.484 684.346 408.671 684.134 406.887C684.067 406.138 683.917 405.412 683.826 404.673C683.672 403.605 683.531 402.568 683.33 401.515C683.166 400.734 682.947 399.97 682.783 399.187C682.542 398.201 682.324 397.179 682.026 396.207C681.79 395.36 681.474 394.533 681.187 393.7C680.887 392.837 680.615 391.944 680.283 391.062C680.211 390.884 680.172 390.725 680.1 390.543C680.092 390.517 680.092 390.517 680.092 390.517C679.749 389.695 679.315 388.868 678.95 388.053C678.647 387.392 678.376 386.752 678.076 386.119C677.705 385.39 677.272 384.675 676.875 383.953C676.403 383.079 675.931 382.205 675.418 381.37C675.086 380.83 674.71 380.329 674.351 379.793C673.718 378.818 673.082 377.846 672.369 376.888C671.307 375.452 670.168 374.034 668.931 372.67C668.217 371.852 667.467 371.078 666.705 370.301C666.303 369.921 665.933 369.558 665.528 369.176C665.131 368.821 664.747 368.434 664.347 368.054C663.911 367.65 663.45 367.284 663.023 366.907C662.628 366.58 662.272 366.271 661.877 365.944C661.422 365.576 660.971 365.234 660.483 364.872C660.1 364.571 659.716 364.27 659.308 364.002C658.858 363.661 658.381 363.326 657.909 363.017C657.496 362.72 657.061 362.432 656.627 362.17C656.182 361.854 655.72 361.574 655.251 361.292C654.811 361.003 654.326 360.727 653.864 360.474C653.432 360.213 652.974 359.958 652.55 359.723C652.032 359.453 651.51 359.184 650.994 358.916C650.576 358.706 650.158 358.5 649.74 358.289C649.166 358.035 648.621 357.772 648.055 357.544C647.707 357.376 647.35 357.206 647.007 357.067C646.972 357.044 646.912 357.031 646.851 357.017C645.751 356.553 644.622 356.124 643.488 355.751C643.139 355.608 642.777 355.499 642.413 355.393C641.544 355.096 640.688 354.824 639.809 354.59C639.452 354.51 639.114 354.393 638.755 354.311C637.602 353.999 636.435 353.747 635.274 353.496C634.984 353.455 634.713 353.407 634.447 353.359C633.477 353.203 632.53 353.037 631.565 352.91C631.186 352.858 630.832 352.806 630.459 352.783C629.32 352.638 628.199 352.545 627.073 352.453C626.987 352.449 626.869 352.449 626.783 352.441C625.554 352.374 624.307 352.37 623.06 352.364C622.746 352.355 622.435 352.375 622.138 352.394C621.114 352.389 620.113 352.438 619.083 352.519C618.834 352.525 618.584 352.56 618.333 352.562C617.085 352.671 615.873 352.799 614.645 352.986C614.568 353.005 614.506 352.989 614.425 353.009C614.232 353.029 614.047 353.074 613.862 353.12C612.845 353.257 611.824 353.451 610.802 353.673C610.421 353.737 610.072 353.823 609.692 353.888C608.52 354.174 607.319 354.47 606.133 354.815L605.192 355.135C604.275 355.417 603.331 355.731 602.427 356.069C602.033 356.193 601.645 356.343 601.231 356.501C600.095 356.95 598.936 357.405 597.821 357.932C597.569 358.05 597.311 358.167 597.061 358.288C596.125 358.743 595.171 359.23 594.253 359.742C593.895 359.913 593.545 360.112 593.202 360.309C592.086 360.953 590.976 361.619 589.879 362.337C589.752 362.399 589.661 362.479 589.541 362.566C588.519 363.24 587.51 363.968 586.526 364.688C586.239 364.901 585.96 365.137 585.7 365.344C584.6 366.178 583.543 367.06 582.5 367.992C566.672 382.198 559.986 402.784 562.815 422.39C567.638 462.914 553.365 505.127 520.627 534.447C519.149 535.802 517.626 537.078 516.097 538.331C515.768 538.607 515.432 538.862 515.105 539.138C513.925 540.082 512.727 540.964 511.533 541.882C510.267 542.815 508.964 543.727 507.686 544.633C507.005 545.084 506.359 545.553 505.702 545.993C504.905 546.535 504.093 547.042 503.256 547.557C502.331 548.155 501.374 548.758 500.416 549.33C499.571 549.818 498.758 550.3 497.908 550.762C496.94 551.314 495.972 551.862 495.025 552.376C494.172 552.811 493.322 553.274 492.435 553.687C491.477 554.177 490.496 554.674 489.508 555.141C488.624 555.561 487.76 555.969 486.893 556.35C485.898 556.79 484.871 557.214 483.871 557.629C483.005 558.01 482.128 558.364 481.248 558.696C480.222 559.12 479.181 559.485 478.14 559.855C477.285 560.175 476.429 560.496 475.542 560.802C474.475 561.148 473.364 561.478 472.264 561.831C471.425 562.094 470.61 562.347 469.762 562.585C468.518 562.947 467.271 563.255 465.994 563.599C465.327 563.759 464.642 563.958 463.95 564.124C462.019 564.569 460.11 564.98 458.166 565.345C457.406 565.476 456.637 565.578 455.878 565.703C454.66 565.923 453.464 566.13 452.266 566.315C451.367 566.452 450.48 566.524 449.579 566.637C448.5 566.755 447.406 566.907 446.304 567.013C445.389 567.096 444.443 567.155 443.496 567.222C442.445 567.305 441.418 567.362 440.35 567.426C439.401 567.458 438.446 567.501 437.497 567.533C436.456 567.56 435.413 567.565 434.364 567.568C433.404 567.574 432.439 567.56 431.47 567.542C430.451 567.533 429.43 567.501 428.397 567.445C427.424 567.402 426.453 567.359 425.498 567.279C424.468 567.22 423.46 567.128 422.417 567.042C421.462 566.97 420.505 566.86 419.523 566.766C418.504 566.643 417.485 566.53 416.46 566.386C415.521 566.246 414.55 566.12 413.617 565.978C412.584 565.81 411.552 565.64 410.541 565.433C409.597 565.268 408.65 565.104 407.725 564.914C406.655 564.694 405.601 564.436 404.59 564.206C403.683 563.975 402.763 563.809 401.881 563.573C400.68 563.27 399.521 562.938 398.338 562.603C397.242 562.278 396.147 561.98 395.072 561.626C393.543 561.151 392.039 560.669 390.558 560.159C389.716 559.851 388.901 559.515 388.064 559.212C387.002 558.821 385.948 558.429 384.912 558.008C384.06 557.646 383.169 557.249 382.322 556.884C381.333 556.45 380.359 556.045 379.369 555.579C378.5 555.169 377.637 554.755 376.768 554.321C375.802 553.852 374.869 553.377 373.904 552.905C373.062 552.463 372.204 551.965 371.327 551.5C370.409 550.988 369.49 550.478 368.57 549.939C367.712 549.446 366.88 548.939 366.051 548.438C365.12 547.874 364.217 547.308 363.308 546.711L360.881 545.099C359.988 544.468 359.1 543.844 358.207 543.206C357.418 542.643 356.627 542.071 355.864 541.492C354.962 540.814 354.05 540.104 353.176 539.414C352.433 538.799 351.699 538.245 350.985 537.633C350.068 536.868 349.164 536.063 348.261 535.269C347.577 534.677 346.896 534.111 346.242 533.502C345.258 532.588 344.289 531.641 343.316 530.684C342.769 530.172 342.219 529.657 341.685 529.11C340.446 527.854 339.223 526.545 337.998 525.237C337.762 524.979 337.525 524.701 337.292 524.445C333.787 520.525 330.545 516.435 327.568 512.237C288.528 453.551 309.662 400.452 309.662 400.452C309.662 400.452 331.629 357.973 273.009 342.545C214.391 327.119 188.463 381.152 188.463 381.152C169.627 487.801 216.427 564.976 216.427 564.976C224.84 579.343 234.798 593.068 246.363 605.957C246.478 606.103 246.626 606.231 246.743 606.371C248.755 608.597 250.764 610.763 252.837 612.88C253.287 613.333 253.689 613.831 254.142 614.285C254.445 614.607 254.768 614.896 255.073 615.213C256.682 616.83 258.294 618.413 259.919 619.963C260.726 620.733 261.536 621.494 262.373 622.25C263.51 623.32 264.677 624.396 265.838 625.441C266.637 626.153 267.433 626.863 268.254 627.563C269.734 628.864 271.239 630.172 272.765 631.433C273.226 631.803 273.66 632.205 274.121 632.572C276.071 634.186 278.032 635.737 280.027 637.287C280.681 637.775 281.341 638.265 281.974 638.759C283.54 639.961 285.125 641.12 286.704 642.267C287.281 642.661 287.83 643.069 288.384 643.466C290.5 644.955 292.613 646.416 294.751 647.843C295.15 648.114 295.549 648.353 295.922 648.596C297.746 649.822 299.588 650.975 301.455 652.134C302.018 652.474 302.618 652.836 303.19 653.209C305.306 654.473 307.395 655.712 309.535 656.94C309.658 656.996 309.763 657.082 309.888 657.136C312.187 658.437 314.501 659.683 316.843 660.914C317.326 661.167 317.817 661.443 318.326 661.684C320.303 662.698 322.271 663.685 324.254 664.64C324.677 664.849 325.096 665.058 325.479 665.246C327.914 666.402 330.331 667.501 332.774 668.577C332.9 668.63 333.023 668.681 333.154 668.761C335.49 669.743 337.797 670.735 340.143 671.658C340.551 671.811 340.934 671.971 341.313 672.138C346.373 674.114 351.525 675.963 356.674 677.615C356.771 677.647 356.862 677.68 356.982 677.711C368.981 681.552 381.21 684.491 393.606 686.483C393.81 686.518 393.992 686.562 394.194 686.593C394.368 686.607 394.55 686.647 394.722 686.663C396.573 686.945 398.42 687.227 400.292 687.476C400.589 687.517 400.908 687.548 401.225 687.578C407.858 688.471 414.562 689.066 421.264 689.401C421.588 689.437 421.923 689.439 422.269 689.46C424.104 689.552 425.957 689.606 427.835 689.653C428.32 689.678 428.825 689.664 429.309 689.688C431.018 689.723 432.713 689.729 434.442 689.729C434.979 689.743 435.537 689.713 436.079 689.723C437.774 689.705 439.461 689.683 441.112 689.622C441.651 689.631 442.188 689.614 442.746 689.587C444.484 689.53 446.266 689.429 448.029 689.338C448.445 689.324 448.895 689.292 449.314 689.281C451.403 689.157 453.481 688.991 455.593 688.809C455.675 688.815 455.756 688.795 455.871 688.804C460.355 688.412 464.839 687.9 469.299 687.288C469.623 687.238 469.924 687.187 470.254 687.136C472.081 686.859 473.928 686.575 475.778 686.261C476.325 686.186 476.862 686.081 477.404 685.982C479.037 685.722 480.66 685.406 482.25 685.1C482.896 684.968 483.516 684.847 484.135 684.723C485.696 684.394 487.231 684.077 488.791 683.75C489.405 683.598 490.049 683.466 490.687 683.314C492.24 682.963 493.816 682.579 495.388 682.19C495.981 682.048 496.565 681.905 497.118 681.734C498.85 681.307 500.575 680.83 502.291 680.358C502.713 680.227 503.112 680.127 503.509 680.004C507.845 678.768 512.124 677.438 516.393 675.938C516.658 675.868 516.916 675.754 517.176 675.662C519.005 675.043 520.815 674.37 522.633 673.699C523.172 673.485 523.741 673.254 524.309 673.061C525.809 672.468 527.334 671.892 528.823 671.276C529.464 671.008 530.129 670.73 530.772 670.46C532.185 669.888 533.593 669.285 535.023 668.65C535.693 668.373 536.35 668.069 537.01 667.77C538.439 667.135 539.831 666.483 541.226 665.828C541.864 665.531 542.5 665.238 543.13 664.936C544.627 664.232 546.08 663.479 547.545 662.752C548.07 662.484 548.628 662.203 549.181 661.932C550.934 661.017 552.694 660.108 554.405 659.147C554.663 659.026 554.888 658.919 555.108 658.775C557.154 657.657 559.188 656.506 561.191 655.331C561.268 655.286 561.365 655.234 561.44 655.189C563.287 654.086 565.138 652.979 566.973 651.824C567.487 651.499 568.002 651.18 568.544 650.844C569.939 649.965 571.304 649.063 572.693 648.163C573.321 647.721 573.983 647.305 574.611 646.867C575.871 646.023 577.11 645.183 578.36 644.282C579.041 643.831 579.706 643.324 580.385 642.85C581.586 641.992 582.788 641.128 583.986 640.243C584.651 639.736 585.322 639.238 586.02 638.725C587.205 637.816 588.395 636.899 589.581 635.957C590.222 635.461 590.865 634.968 591.499 634.442C592.777 633.418 594.017 632.382 595.288 631.337C595.83 630.889 596.347 630.452 596.886 630.009C598.667 628.497 600.437 626.968 602.175 625.404C664.489 569.571 692.306 489.651 684.491 412.256Z" fill="#E23979"/>
<path d="M433.901 437.806C396.039 461.235 358.152 438.203 339.993 423.568C337.454 443.553 341.09 464.271 351.198 482.607C352.424 484.824 353.722 486.994 355.138 489.142C357.315 492.477 359.735 495.707 362.366 498.832C362.637 499.129 362.886 499.457 363.157 499.751C368.049 505.37 373.434 510.258 379.2 514.47C414.67 540.274 464.424 539.507 499.291 509.808C522.389 490.16 533.933 462.001 533.349 433.826C533.265 429.911 532.938 425.962 532.382 422.062C529.612 389.988 541.772 357.051 568.196 334.605C578.092 326.152 589.155 319.922 600.746 315.856C620.715 308.839 642.322 308.238 662.487 313.774L662.694 313.378C692.996 322.145 726.988 316.094 752.804 294.106C763.432 285.076 771.65 274.205 777.343 262.345C778.963 258.979 780.312 255.528 781.532 252.036C614.465 240.889 484.924 406.235 433.901 437.806Z" fill="#E23979"/>
<path d="M735.586 199.383L706.527 199.872L706.047 170.816C705.889 161.387 698.112 153.867 688.676 154.029C679.255 154.186 671.738 161.959 671.896 171.386L672.384 200.443L643.321 200.932C633.894 201.089 626.377 208.861 626.536 218.292C626.699 227.72 634.465 235.238 643.898 235.081L672.953 234.591L673.442 263.65C673.605 273.079 681.371 280.595 690.798 280.438C700.231 280.28 707.748 272.506 707.592 263.078L707.104 234.021L736.159 233.535C745.586 233.375 753.109 225.603 752.947 216.174C752.792 206.744 745.012 199.227 735.586 199.383Z" fill="white"/>
</svg>
