<svg id="Layer_1" data-name="Layer 1" xmlns="http://www.w3.org/2000/svg" viewBox="0 0 115.01 129.4"><defs><style>.cls-1{fill:#9d2a64;}.cls-2{fill:#832c58;}.cls-3{fill:#d2659c;}.cls-4{fill:#fff;}</style></defs><path class="cls-1" d="M120.24,96.66a10.14,10.14,0,0,0,1.47-4.93V36.82a10.23,10.23,0,0,0-1.47-4.92l-56,32.4Z" transform="translate(-6.7 0.4)"/><path class="cls-2" d="M69.17,127.82l47.54-27.44a10.22,10.22,0,0,0,3.53-3.72l-56-32.36-56,32.36a9.91,9.91,0,0,0,3.53,3.72l47.54,27.44A11.06,11.06,0,0,0,69.17,127.82Z" transform="translate(-6.7 0.4)"/><path class="cls-3" d="M120.24,31.94a9.91,9.91,0,0,0-3.53-3.72L69.17.78a11.06,11.06,0,0,0-10,0L11.66,28.22a11.1,11.1,0,0,0-5,8.6V91.73a10.27,10.27,0,0,0,1.47,4.93l56-32.36Z" transform="translate(-6.7 0.4)"/><path class="cls-4" d="M65.39,38.31A17.59,17.59,0,1,1,80.61,11.93L73,16.32a8.79,8.79,0,1,0,0,8.8l7.6,4.39A17.63,17.63,0,0,1,65.39,38.31Z" transform="translate(-6.7 0.4)"/><polygon class="cls-4" points="95.84 60.72 91.59 60.72 91.59 56.47 87.31 56.47 87.31 60.72 83.06 60.72 83.06 64.97 87.31 64.97 87.31 69.25 91.59 69.25 91.59 64.97 95.84 64.97 95.84 60.72"/><polygon class="cls-4" points="111.81 60.72 107.57 60.72 107.57 56.47 103.28 56.47 103.28 60.72 99.04 60.72 99.04 64.97 103.28 64.97 103.28 69.25 107.57 69.25 107.57 64.97 111.81 64.97 111.81 60.72"/><path class="cls-4" d="M73,60.88a8.8,8.8,0,1,1-17.59,0V43.28h-8.8v17.6a17.6,17.6,0,1,0,35.19,0V43.28H73Z" transform="translate(-6.7 0.4)"/><path class="cls-4" d="M55.41,92.35v17.49h8.8a8.8,8.8,0,0,0,0-17.59h-8.8l-8.8-8.8h17.6a17.6,17.6,0,0,1,0,35.19H46.61V83.45" transform="translate(-6.7 0.4)"/></svg>